<svg xmlns="http://www.w3.org/2000/svg"  viewBox="0 0 64 64" width="128px" height="128px"><linearGradient id="SVGID_1_" x1="32" x2="32" y1="6.234" y2="56.951" gradientUnits="userSpaceOnUse"><stop offset="0" stop-color="#1a6dff"/><stop offset="1" stop-color="#c822ff"/></linearGradient><path fill="url(#SVGID_1_)" d="M49,12H15c-1.7,0-3,1.3-3,3v34c0,1.7,1.3,3,3,3h34c1.7,0,3-1.3,3-3V15C52,13.3,50.7,12,49,12z M50,49 c0,0.6-0.4,1-1,1H15c-0.6,0-1-0.4-1-1V15c0-0.6,0.4-1,1-1h34c0.6,0,1,0.4,1,1V49z"/><linearGradient id="SVGID_2_" x1="32" x2="32" y1="6.234" y2="56.951" gradientUnits="userSpaceOnUse"><stop offset="0" stop-color="#1a6dff"/><stop offset="1" stop-color="#c822ff"/></linearGradient><path fill="url(#SVGID_2_)" d="M51,8H13c-2.8,0-5,2.2-5,5v38c0,2.8,2.2,5,5,5h38c2.8,0,5-2.2,5-5V13C56,10.2,53.8,8,51,8z M54,51 c0,1.7-1.3,3-3,3H13c-1.7,0-3-1.3-3-3V13c0-1.7,1.3-3,3-3h38c1.7,0,3,1.3,3,3V51z"/><linearGradient id="SVGID_3_" x1="32" x2="32" y1="632.5" y2="627.664" gradientTransform="matrix(1 0 0 -1 0 654)" gradientUnits="userSpaceOnUse"><stop offset="0" stop-color="#6dc7ff"/><stop offset="1" stop-color="#e6abff"/></linearGradient><path fill="url(#SVGID_3_)" d="M44,25c0,0.6-0.4,1-1,1H21c-0.6,0-1-0.4-1-1v-2c0-0.6,0.4-1,1-1h22c0.6,0,1,0.4,1,1V25z"/><linearGradient id="SVGID_4_" x1="32" x2="32" y1="624.667" y2="619.5" gradientTransform="matrix(1 0 0 -1 0 654)" gradientUnits="userSpaceOnUse"><stop offset="0" stop-color="#6dc7ff"/><stop offset="1" stop-color="#e6abff"/></linearGradient><path fill="url(#SVGID_4_)" d="M44,33c0,0.6-0.4,1-1,1H21c-0.6,0-1-0.4-1-1v-2c0-0.6,0.4-1,1-1h22c0.6,0,1,0.4,1,1V33z"/><linearGradient id="SVGID_5_" x1="32" x2="32" y1="617" y2="612.663" gradientTransform="matrix(1 0 0 -1 0 654)" gradientUnits="userSpaceOnUse"><stop offset="0" stop-color="#6dc7ff"/><stop offset="1" stop-color="#e6abff"/></linearGradient><path fill="url(#SVGID_5_)" d="M44,41c0,0.6-0.4,1-1,1H21c-0.6,0-1-0.4-1-1v-2c0-0.6,0.4-1,1-1h22c0.6,0,1,0.4,1,1V41z"/></svg>